<svg width="24" height="24" viewBox="0 0 24 24" fill="none" xmlns="http://www.w3.org/2000/svg">
<mask id="mask0_4138_423" style="mask-type:luminance" maskUnits="userSpaceOnUse" x="0" y="0" width="24" height="24">
<path d="M24 0H0V24H24V0Z" fill="white"/>
</mask>
<g mask="url(#mask0_4138_423)">
<path d="M12 23.0625C18.1096 23.0625 23.0625 18.1096 23.0625 12C23.0625 5.89035 18.1096 0.9375 12 0.9375C5.89035 0.9375 0.9375 5.89035 0.9375 12C0.9375 18.1096 5.89035 23.0625 12 23.0625Z" fill="black" stroke="#E2E4E9" stroke-linecap="round" stroke-linejoin="round"/>
<path d="M15.9451 16.5V7.5V16.5Z" fill="black"/>
<path d="M15.9451 16.5V7.5" stroke="url(#paint0_linear_4138_423)" stroke-miterlimit="1.41421" stroke-linejoin="round"/>
<path fill-rule="evenodd" clip-rule="evenodd" d="M8.99243 7.50131L7.11743 7.5V16.5H8.99243V10.452L18.5422 22.0614C19.0679 21.7189 19.565 21.3363 20.0294 20.9179L8.99243 7.50131Z" fill="url(#paint1_linear_4138_423)"/>
</g>
<defs>
<linearGradient id="paint0_linear_4138_423" x1="-nan" y1="-nan" x2="-nan" y2="-nan" gradientUnits="userSpaceOnUse">
<stop stop-color="white"/>
<stop offset="0.609375" stop-color="white" stop-opacity="0.57"/>
<stop offset="0.796875" stop-color="white" stop-opacity="0"/>
<stop offset="1" stop-color="white" stop-opacity="0"/>
</linearGradient>
<linearGradient id="paint1_linear_4138_423" x1="14.9062" y1="13.5938" x2="20.336" y2="20.0988" gradientUnits="userSpaceOnUse">
<stop stop-color="#E2E4E9"/>
<stop offset="1" stop-color="#E2E4E9" stop-opacity="0"/>
</linearGradient>
</defs>
</svg>
